# xmcd
#
# Track frame offsets:
#	150
#	15000
#	33675
#	48450
#	65478
#	81378
#	98103
#	114530
#	128855
#	144605
#	159458
#	173483
#
# Disc length: 2587 seconds
#
# Revision: 0
# Processed by: cddbd v1.4PL0 Copyright (c) Steve Scherf et al.
# Submitted via: dBpowerAMP V4.0
#
DISCID=990a190c
DTITLE=Yvanna - Duda De Amor
DYEAR=2000
DGENRE=Latin
TTITLE0=Duda De Amor
TTITLE1=Vida Mia
TTITLE2=Arco Iris
TTITLE3=Alejate
TTITLE4=Si Usted Supiera
TTITLE5=No Creo Yo
TTITLE6=Traicionero
TTITLE7=Suspiros De Amor
TTITLE8=Un Corazon Desesperado
TTITLE9=Decidete
TTITLE10=Soñando Con Tu Amor
TTITLE11=El Amor Con El
EXTD=
EXTT0=
EXTT1=
EXTT2=
EXTT3=
EXTT4=
EXTT5=
EXTT6=
EXTT7=
EXTT8=
EXTT9=
EXTT10=
EXTT11=
PLAYORDER=
